<?xml version="1.0" encoding="utf-8" standalone="no"?>
<!DOCTYPE svg PUBLIC "-//W3C//DTD SVG 1.1//EN"
  "http://www.w3.org/Graphics/SVG/1.1/DTD/svg11.dtd">
<svg xmlns:xlink="http://www.w3.org/1999/xlink" width="55.8pt" height="55.44pt" viewBox="0 0 55.8 55.44" xmlns="http://www.w3.org/2000/svg" version="1.1">
 <metadata>
  <rdf:RDF xmlns:dc="http://purl.org/dc/elements/1.1/" xmlns:cc="http://creativecommons.org/ns#" xmlns:rdf="http://www.w3.org/1999/02/22-rdf-syntax-ns#">
   <cc:Work>
    <dc:type rdf:resource="http://purl.org/dc/dcmitype/StillImage"/>
    <dc:date>2025-12-27T15:18:49.566824</dc:date>
    <dc:format>image/svg+xml</dc:format>
    <dc:creator>
     <cc:Agent>
      <dc:title>Matplotlib v3.10.6, https://matplotlib.org/</dc:title>
     </cc:Agent>
    </dc:creator>
   </cc:Work>
  </rdf:RDF>
 </metadata>
 <defs>
  <style type="text/css">*{stroke-linejoin: round; stroke-linecap: butt}</style>
 </defs>
 <g id="figure_1">
  <g id="patch_1">
   <path d="M 0 55.44 
L 55.8 55.44 
L 55.8 0 
L 0 0 
z
" style="fill: #ffffff"/>
  </g>
  <g id="axes_1">
   <g id="text_1">
    <!-- υ -->
    <g transform="translate(16.328125 38.7575) scale(0.4 -0.4)">
     <defs>
      <path id="DejaVuSans-3c5" d="M 1056 3500 
L 1056 1234 
Q 1056 813 1213 613 
Q 1384 397 1719 397 
Q 2188 397 2516 1047 
Q 2700 1416 2747 2000 
Q 2772 2319 2678 2719 
Q 2591 3091 2259 3500 
L 2841 3500 
L 2841 3500 
Q 3059 3219 3200 2834 
Q 3331 2475 3331 1994 
Q 3331 1203 2931 619 
Q 2444 -94 1650 -91 
Q 1091 -91 775 284 
Q 469 653 469 1269 
L 466 3500 
L 1056 3500 
z
" transform="scale(0.015625)"/>
     </defs>
     <use xlink:href="#DejaVuSans-3c5"/>
    </g>
   </g>
  </g>
 </g>
</svg>
